<?xml version="1.0" encoding="UTF-8"?>
<svg width="128px" height="42px" viewBox="0 0 128 42" version="1.1" xmlns="http://www.w3.org/2000/svg" xmlns:xlink="http://www.w3.org/1999/xlink">
    <title>sangfor</title>
    <defs>
        <radialGradient cx="125.130022%" cy="-106.201612%" fx="125.130022%" fy="-106.201612%" r="330.012558%" gradientTransform="translate(1.251300,-1.062016),scale(0.285842,1.000000),translate(-1.251300,1.062016)" id="radialGradient-1">
            <stop stop-color="#CDDF77" offset="0%"></stop>
            <stop stop-color="#6FBA2C" offset="86%"></stop>
        </radialGradient>
        <radialGradient cx="10.545617%" cy="246.645361%" fx="10.545617%" fy="246.645361%" r="338.675523%" gradientTransform="translate(0.105456,2.466454),scale(0.381289,1.000000),translate(-0.105456,-2.466454)" id="radialGradient-2">
            <stop stop-color="#CDDF77" offset="0%"></stop>
            <stop stop-color="#6FBA2C" offset="86%"></stop>
        </radialGradient>
        <radialGradient cx="17.7158661%" cy="363.236729%" fx="17.7158661%" fy="363.236729%" r="381.787343%" gradientTransform="translate(0.177159,3.632367),scale(0.360538,1.000000),translate(-0.177159,-3.632367)" id="radialGradient-3">
            <stop stop-color="#CDDF77" offset="0%"></stop>
            <stop stop-color="#6FBA2C" offset="86%"></stop>
        </radialGradient>
        <radialGradient cx="1.11197889%" cy="-24.9311065%" fx="1.11197889%" fy="-24.9311065%" r="589.705032%" gradientTransform="translate(0.011120,-0.249311),scale(0.319824,1.000000),translate(-0.011120,0.249311)" id="radialGradient-4">
            <stop stop-color="#CDDF77" offset="0%"></stop>
            <stop stop-color="#6FBA2C" offset="86%"></stop>
        </radialGradient>
        <radialGradient cx="2.36725966%" cy="173.568673%" fx="2.36725966%" fy="173.568673%" r="380.480088%" gradientTransform="translate(0.023673,1.735687),scale(0.405376,1.000000),rotate(180.000000),translate(-0.023673,-1.735687)" id="radialGradient-5">
            <stop stop-color="#CDDF77" offset="0%"></stop>
            <stop stop-color="#6FBA2C" offset="86%"></stop>
        </radialGradient>
        <radialGradient cx="181.285055%" cy="-254.970969%" fx="181.285055%" fy="-254.970969%" r="333.538475%" gradientTransform="translate(1.812851,-2.549710),scale(0.405711,1.000000),translate(-1.812851,2.549710)" id="radialGradient-6">
            <stop stop-color="#7ECEF4" offset="0%"></stop>
            <stop stop-color="#0B318F" offset="100%"></stop>
        </radialGradient>
        <radialGradient cx="72.6144123%" cy="28.0628732%" fx="72.6144123%" fy="28.0628732%" r="303.278021%" gradientTransform="translate(0.726144,0.280629),scale(0.282359,1.000000),translate(-0.726144,-0.280629)" id="radialGradient-7">
            <stop stop-color="#7ECEF4" offset="0%"></stop>
            <stop stop-color="#0B318F" offset="100%"></stop>
        </radialGradient>
        <radialGradient cx="113.495199%" cy="119.975015%" fx="113.495199%" fy="119.975015%" r="512.105963%" gradientTransform="translate(1.134952,1.199750),scale(0.324692,1.000000),translate(-1.134952,-1.199750)" id="radialGradient-8">
            <stop stop-color="#7ECEF4" offset="0%"></stop>
            <stop stop-color="#0B318F" offset="100%"></stop>
        </radialGradient>
        <radialGradient cx="85.3244163%" cy="-143.563429%" fx="85.3244163%" fy="-143.563429%" r="290.571542%" gradientTransform="translate(0.853244,-1.435634),scale(0.337809,1.000000),translate(-0.853244,1.435634)" id="radialGradient-9">
            <stop stop-color="#7ECEF4" offset="0%"></stop>
            <stop stop-color="#0B318F" offset="100%"></stop>
        </radialGradient>
        <radialGradient cx="92.8979486%" cy="-262.834006%" fx="92.8979486%" fy="-262.834006%" r="344.736855%" gradientTransform="translate(0.928979,-2.628340),scale(0.360520,1.000000),translate(-0.928979,2.628340)" id="radialGradient-10">
            <stop stop-color="#7ECEF4" offset="0%"></stop>
            <stop stop-color="#0B318F" offset="100%"></stop>
        </radialGradient>
        <radialGradient cx="336.172081%" cy="-111.547032%" fx="336.172081%" fy="-111.547032%" r="1875.92365%" gradientTransform="translate(3.361721,-1.115470),scale(0.176349,1.000000),translate(-3.361721,1.115470)" id="radialGradient-11">
            <stop stop-color="#18943B" offset="0%"></stop>
            <stop stop-color="#007440" offset="100%"></stop>
        </radialGradient>
        <radialGradient cx="128.128342%" cy="-438.588305%" fx="128.128342%" fy="-438.588305%" r="467.108342%" gradientTransform="translate(1.281283,-4.385883),scale(0.165657,1.000000),translate(-1.281283,4.385883)" id="radialGradient-12">
            <stop stop-color="#18943B" offset="0%"></stop>
            <stop stop-color="#007440" offset="100%"></stop>
        </radialGradient>
        <radialGradient cx="243.519488%" cy="-439.545455%" fx="243.519488%" fy="-439.545455%" r="408.555212%" gradientTransform="translate(2.435195,-4.395455),scale(0.501190,1.000000),translate(-2.435195,4.395455)" id="radialGradient-13">
            <stop stop-color="#18943B" offset="0%"></stop>
            <stop stop-color="#007440" offset="100%"></stop>
        </radialGradient>
        <radialGradient cx="257.315406%" cy="-451.567694%" fx="257.315406%" fy="-451.567694%" r="456.53783%" gradientTransform="translate(2.573154,-4.515677),scale(0.272380,1.000000),translate(-2.573154,4.515677)" id="radialGradient-14">
            <stop stop-color="#18943B" offset="0%"></stop>
            <stop stop-color="#007440" offset="100%"></stop>
        </radialGradient>
        <radialGradient cx="486.122449%" cy="-501.845018%" fx="486.122449%" fy="-501.845018%" r="58.5733381%" gradientTransform="translate(4.861224,-5.018450),scale(0.734006,1.000000),translate(-4.861224,5.018450)" id="radialGradient-15">
            <stop stop-color="#007941" offset="0%"></stop>
            <stop stop-color="#007941" offset="100%"></stop>
        </radialGradient>
        <radialGradient cx="208.548708%" cy="-1118.16405%" fx="208.548708%" fy="-1118.16405%" r="273.827947%" gradientTransform="translate(2.085487,-11.181640),scale(0.127600,1.000000),translate(-2.085487,11.181640)" id="radialGradient-16">
            <stop stop-color="#00663B" offset="0%"></stop>
            <stop stop-color="#006D46" offset="100%"></stop>
        </radialGradient>
    </defs>
    <g id="登陆页" stroke="none" stroke-width="1" fill="none" fill-rule="evenodd">
        <g id="品牌-登录页-1920" transform="translate(-1181.000000, -17.000000)">
            <g id="编组-3" transform="translate(1152.000000, 0.000000)">
                <g id="sangfor" transform="translate(29.000000, 17.000000)">
                    <g id="分组" transform="translate(2.000000, 3.000000)">
                        <path d="M49.1962745,24.6615152 L48.3633333,25.6057576 C48.0336275,25.1854545 47.5593137,24.6615152 46.9635294,24.0281818 L47.7386275,23.1587879 C48.2553435,23.6291278 48.7421659,24.131006 49.1962745,24.6615152 Z M49.2309804,26.3139394 C49.0427264,27.5548236 48.6519529,28.7567322 48.0741176,29.8721212 L46.9866667,29.2963636 C47.5151433,28.2294041 47.903937,27.0993745 48.1435294,25.9339394 L49.2309804,26.3139394 Z M49.4102941,22.3987879 L48.5657843,23.3142424 C48.1282006,22.7548656 47.6527828,22.2258593 47.1428431,21.7309091 L47.9526471,20.8730303 C48.4768057,21.3439764 48.9641022,21.8540425 49.4102941,22.3987879 L49.4102941,22.3987879 Z M51.8165686,27.8569697 C51.0739263,28.5759395 50.2181132,29.1691277 49.2830392,29.6130303 L48.7046078,28.6169697 C49.6480612,28.1666206 50.4992899,27.5457924 51.215,26.7860606 L49.4218627,26.7860606 L49.4218627,25.7151515 L51.7992157,25.7151515 L51.7992157,24.8342424 L53.0544118,24.8342424 L53.0544118,25.7151515 L55.6052941,25.7151515 L55.6052941,26.7860606 L53.5518627,26.7860606 C54.2827325,27.5325985 55.1404415,28.1446435 56.0853922,28.5939394 L55.437549,29.7454545 C54.5460588,29.2790742 53.7403007,28.6658689 53.0544118,27.9318182 L53.0544118,29.9412121 L51.7992157,29.9412121 L51.8165686,27.8569697 Z M52.1289216,22.2145455 C52.0970027,22.8826016 51.878672,23.5285846 51.4984314,24.08 C51.1066677,24.6016103 50.6001335,25.027023 50.0176471,25.3236364 L49.4392157,24.4772727 C49.8974319,24.2068826 50.2919516,23.8416753 50.5960784,23.4063636 C50.8220359,23.0452471 50.9624767,22.6376857 51.0067647,22.2145455 L50.4803922,22.2145455 L50.4803922,23.0493939 L49.4392157,23.0493939 L49.4392157,21.2012121 L55.6573529,21.2012121 L55.6573529,22.9572727 L54.6393137,22.9572727 L54.6393137,22.2145455 L53.5923529,22.2145455 L53.5923529,23.6481818 C53.5866993,23.6954944 53.6031555,23.7427748 53.6370028,23.7764656 C53.6708501,23.8101565 53.7183501,23.8265366 53.7658824,23.8209091 L54.2806863,23.8209091 C54.3540946,23.8315053 54.4261523,23.7944861 54.46,23.7287879 C54.4946203,23.5389214 54.5081984,23.345846 54.5004902,23.1530303 L55.454902,23.3084848 L55.454902,23.9475758 C55.4635614,24.2110772 55.3531968,24.4645873 55.1541176,24.6384848 C54.726502,24.8633044 54.2404063,24.9536496 53.760098,24.8975758 C53.539138,24.9012395 53.3183315,24.883888 53.1006863,24.8457576 C52.9238988,24.8097221 52.7694061,24.7037396 52.6726471,24.5521212 C52.5539173,24.3543839 52.4974998,24.1257456 52.5106863,23.8957576 L52.5106863,22.2375758 L52.1289216,22.2145455 Z" id="形状" fill="#231815" fill-rule="nonzero"></path>
                        <path d="M59.5559804,29.9987879 L58.3123529,29.9987879 L58.3123529,25.7554545 C58.1561765,26.0490909 57.9595098,26.3772727 57.7339216,26.7457576 L56.9067647,25.9972727 C57.3346197,25.3031403 57.7004354,24.5729642 58,23.8151515 C58.3816134,22.9361953 58.6685752,22.0194603 58.8560784,21.080303 L60.1344118,21.080303 C59.970825,22.0017457 59.7030441,22.9018115 59.3361765,23.7633333 L59.5559804,23.7633333 L59.5559804,29.9987879 Z M65.9592157,23.6193939 L59.7989216,23.6193939 L59.7989216,22.5484848 L65.9823529,22.5484848 L65.9592157,23.6193939 Z M64.3743137,29.5439394 L61.3606863,29.5439394 L61.3606863,29.8606061 L60.1344118,29.8606061 L60.1344118,26.7975758 L65.6526471,26.7975758 L65.6526471,29.8260606 L64.3858824,29.8260606 L64.3743137,29.5439394 Z M64.9932353,22.1166667 L60.8863725,22.1166667 L60.8863725,21.1724242 L65.0163725,21.1724242 L64.9932353,22.1166667 Z M65.4270588,24.9954545 L60.2963725,24.9954545 L60.2963725,24.0454545 L65.4270588,24.0454545 L65.4270588,24.9954545 Z M65.4270588,26.3484848 L60.2963725,26.3484848 L60.2963725,25.4330303 L65.4270588,25.4330303 L65.4270588,26.3484848 Z M61.3780392,28.6515152 L64.3916667,28.6515152 L64.3916667,27.730303 L61.3780392,27.730303 L61.3780392,28.6515152 Z" id="形状" fill="#231815" fill-rule="nonzero"></path>
                        <path d="M70.8816667,29.02 C70.8875078,29.2401288 70.7941502,29.4513245 70.6271569,29.5957576 C70.4516807,29.753232 70.2211548,29.8359204 69.985098,29.8260606 L68.9728431,29.8260606 L68.8398039,28.6745455 L69.5512745,28.6745455 C69.707451,28.6745455 69.7884314,28.6054545 69.7884314,28.4787879 L69.7884314,26.3657576 L68.9207843,26.3657576 C68.8776512,27.597015 68.580337,28.8062527 68.0473529,29.9181818 L67.1681373,29.4230303 C67.4223779,28.7845117 67.5972053,28.1174379 67.6887255,27.4366667 C67.7929125,26.7466068 67.8489616,26.0501932 67.8564706,25.3524242 L67.8564706,21.1090909 L70.8816667,21.1090909 L70.8816667,29.02 Z M69.7884314,23.2624242 L69.7884314,22.0533333 L68.9439216,22.0533333 L68.9439216,23.2624242 L69.7884314,23.2624242 Z M69.7884314,25.4848485 L69.7884314,24.1893939 L68.9439216,24.1893939 L68.9439216,25.4848485 L69.7884314,25.4848485 Z M72.5822549,29.8606061 L71.4253922,29.8606061 L71.4253922,21.0745455 L75.5958824,21.0745455 L75.5958824,23.2221212 C75.5994249,23.4701763 75.4911871,23.7067763 75.3008824,23.8669697 C75.1119409,24.0401838 74.8636139,24.1349358 74.6067647,24.1318182 L73.5193137,24.1318182 L73.3631373,23.0724242 L74.1787255,23.0724242 C74.3464706,23.0724242 74.427451,22.9918182 74.427451,22.8363636 L74.427451,22.0763636 L72.5938235,22.0763636 L72.5938235,24.5233333 L75.6710784,24.5233333 C75.6738715,24.9082858 75.6506821,25.2929902 75.6016667,25.6748485 C75.5494277,26.049064 75.4543317,26.4160988 75.3182353,26.7687879 C75.1580799,27.1443358 74.9785266,27.5113913 74.7802941,27.8684848 C75.1106889,28.2902593 75.5002966,28.6625538 75.9371569,28.9739394 L75.2372549,29.8318182 C74.8218928,29.5122836 74.4348514,29.1578515 74.0803922,28.7724242 C73.7761294,29.1429371 73.4517227,29.4965972 73.1086275,29.8318182 L72.5822549,29.2560606 L72.5822549,29.8606061 Z M72.5822549,26.3484848 L72.5822549,28.8415152 C72.8638361,28.553773 73.1284299,28.2500316 73.3747059,27.9318182 C73.0580675,27.4256589 72.7926192,26.8895018 72.5822549,26.3312121 L72.5822549,26.3484848 Z M74.0514706,26.9242424 C74.2519587,26.4892404 74.3883314,26.0277164 74.4563725,25.5539394 L73.5366667,25.5539394 C73.6428848,26.0251563 73.81624,26.4788372 74.0514706,26.9012121 L74.0514706,26.9242424 Z" id="形状" fill="#231815" fill-rule="nonzero"></path>
                        <path d="M78.8582353,26.9012121 C78.5810558,27.4280735 78.2348282,27.9159726 77.8286275,28.3521212 L77.1981373,27.4884848 C77.536939,27.0991722 77.8263956,26.6698948 78.06,26.210303 C78.3539281,25.6960149 78.5961163,25.1540925 78.7830392,24.5924242 L77.4873529,24.5924242 L77.4873529,23.5157576 L78.8640196,23.5157576 L78.8640196,22.4966667 C78.3588562,22.5811111 77.9539542,22.6386869 77.6493137,22.6693939 L77.4584314,21.7021212 C78.0251889,21.6343518 78.5872982,21.5324477 79.1416667,21.3969697 C79.6695007,21.2821222 80.1848178,21.116286 80.6802941,20.9018182 L81.1661765,21.8748485 C80.812653,22.0209011 80.4492788,22.1421073 80.0787255,22.2375758 L80.0787255,23.5157576 L81.0562745,23.5157576 L81.0562745,24.5924242 L80.0787255,24.5924242 L80.0787255,24.9148485 C80.3854636,25.3365125 80.7385686,25.7227463 81.1314706,26.0663636 L80.5877451,27.0969697 C80.4257843,26.9242424 80.2580392,26.7227273 80.0787255,26.5212121 L80.0787255,30.0506061 L78.8640196,30.0506061 L78.8582353,26.9012121 Z M86.0770588,27.3906061 L85.3655882,27.4827273 L85.3655882,29.9642424 L84.1046078,29.9642424 L84.1046078,27.6612121 L80.9579412,28.0181818 L80.9232353,26.8666667 L84.1277451,26.4636364 L84.1277451,23.4639394 L83.4914706,24.3045455 C82.5486275,23.2048485 81.9297059,22.5139394 81.6231373,22.2375758 L82.4213725,21.2818182 C83.0396741,21.83825 83.6104306,22.4448847 84.1277451,23.0954545 L84.1277451,20.9363636 L85.3887255,20.9363636 L85.3887255,26.3024242 L86.0828431,26.210303 L86.0770588,27.3906061 Z M83.7980392,25.5827273 L82.9998039,26.6133333 C82.4200118,25.8727451 81.7899775,25.1725231 81.1141176,24.5175758 L81.8718627,23.5272727 C82.5641614,24.1640114 83.2079912,24.8510528 83.7980392,25.5827273 L83.7980392,25.5827273 Z" id="形状" fill="#231815" fill-rule="nonzero"></path>
                        <path d="M90.6408824,25.9339394 C90.383268,26.0533768 90.1186349,26.1572026 89.8484314,26.2448485 L89.8484314,28.9969697 C89.8648614,29.27804 89.7520665,29.5513094 89.5418627,29.739697 C89.3283434,29.9217157 89.0534205,30.0163623 88.772549,30.0045455 L87.7082353,30.0045455 L87.5636275,28.8530303 L88.3155882,28.8530303 C88.3988047,28.8642602 88.4825644,28.8365796 88.5425085,28.7780384 C88.6024526,28.7194972 88.631852,28.636667 88.6221569,28.5536364 L88.6221569,26.6593939 L87.592549,26.9587879 L87.3553922,25.8072727 C87.7819417,25.7382873 88.2047317,25.647971 88.6221569,25.5366667 L88.6221569,23.7748485 L87.5462745,23.7748485 L87.5462745,22.7384848 L88.6221569,22.7384848 L88.6221569,21.0112121 L89.8484314,21.0112121 L89.8484314,22.7384848 L90.5541176,22.7384848 L90.5541176,23.7748485 L89.8484314,23.7748485 L89.8484314,25.1393939 C90.0816886,25.0744163 90.3114361,24.9975472 90.5367647,24.9090909 L90.6408824,25.9339394 Z M95.9855882,24.4081818 C95.9309122,25.0026917 95.7845897,25.585276 95.5517647,26.1354545 C95.3070534,26.7313567 94.9606775,27.2806589 94.5279412,27.7590909 C95.1588148,28.148024 95.8425687,28.4446928 96.5582353,28.64 L95.9277451,29.9354545 C95.0708429,29.6357141 94.2607546,29.2170356 93.5214706,28.6918182 C92.6860646,29.2636902 91.7560132,29.6846639 90.7739216,29.9354545 L90.3632353,28.7493939 C91.1494949,28.5683669 91.8974976,28.2506683 92.5728431,27.8109091 C92.2459634,27.4365804 91.9590621,27.0294429 91.7167647,26.5960606 C91.4993381,26.2247948 91.3394338,25.8229997 91.242451,25.4042424 L90.8433333,25.4042424 L90.8433333,24.2815152 L92.8042157,24.2815152 L92.8042157,23.2739394 L90.745,23.2739394 L90.745,22.1742424 L92.8042157,22.1742424 L92.8042157,20.9363636 L94.0883333,20.9363636 L94.0883333,22.1742424 L96.2863725,22.1742424 L96.2863725,23.2739394 L94.0883333,23.2739394 L94.0883333,24.2815152 L95.8583333,24.2815152 L95.9855882,24.4081818 Z M93.5388235,27.0393939 C93.9604095,26.5787735 94.2727292,26.0298215 94.4527451,25.4330303 L92.4802941,25.4330303 C92.7222291,26.0332644 93.0821034,26.5793892 93.5388235,27.0393939 L93.5388235,27.0393939 Z" id="形状" fill="#231815" fill-rule="nonzero"></path>
                        <g id="分组-2">
                            <path d="M4.01674923,28.5218182 C5.31,30.6490909 9.96789474,31.3581818 13.0585449,31.7236364 C18.7576161,32.3890909 24.8786378,31.9854545 29.3666563,30.18 C30.8828882,29.5075877 32.2627756,28.5648024 33.4382043,27.3981818 C34.5288171,26.0617184 35.3158497,24.506094 35.7452322,22.8381818 C35.4657585,22.8054545 34.9670898,23.7490909 33.4765635,24.5836364 C32.7722094,24.9435309 32.0390385,25.2445659 31.284613,25.4836364 C25.7718576,27.3490909 17.4314861,27.2672727 10.9707121,26.5254545 C9.68294118,26.3727273 6.77860681,25.7454545 5.58399381,25.6418182 C4.67433437,25.5654545 3.89071207,25.8109091 3.64411765,26.5036364 C3.52803127,27.1990336 3.65984626,27.9129469 4.01674923,28.5218182 Z" id="路径" fill="url(#radialGradient-1)"></path>
                            <path d="M35.1698452,12.2181818 C34.5931188,11.2932298 33.8043847,10.5174879 32.8682972,9.95454545 C25.0485139,5.44909091 14.5819505,7.47272727 14.5819505,7.47272727 C13.5704813,7.72206601 12.7712796,8.49258362 12.4886378,9.49090909 C12.0009288,11.5854545 13.4366563,12.7036364 15.0860991,12.8127273 C15.9464396,12.8727273 16.8670588,12.8127273 17.7712384,12.8127273 C18.675418,12.8127273 19.6672755,12.8127273 20.6152941,12.8454545 C26.1664087,13.0527273 33.3395666,13.3254545 36.2548607,16.1181818 C36.1860639,14.7545233 35.8155703,13.4228141 35.1698452,12.2181818 L35.1698452,12.2181818 Z" id="路径" fill="url(#radialGradient-2)"></path>
                            <path d="M33.3176471,8.21454545 C33.3329031,8.14812969 33.3329031,8.07914304 33.3176471,8.01272727 C31.4507247,5.2413675 28.8481209,3.03975779 25.799257,1.65272727 C25.1033127,1.35272727 24.4512074,1.10727273 23.8922601,0.916363636 C23.5086687,0.796363636 23.1141176,0.681818182 22.7140867,0.583636364 C20.391033,0.0798093811 17.9944349,0.00768901386 15.6450464,0.370909091 C14.7135452,0.526110261 13.7969472,0.75967467 12.9051084,1.06909091 C12.2058624,1.19476669 11.5830121,1.58591567 11.1679876,2.16 C10.9954223,2.47893143 10.9192937,2.84076525 10.9487926,3.20181818 C11.0474303,3.69272727 11.8310526,3.99272727 12.4941176,3.99818182 C13.3763777,3.99818182 14.2860372,3.82363636 15.2066563,3.75272727 C21.5139938,3.28909091 27.9692879,4.45090909 31.8106811,6.9 C32.3532796,7.29020662 32.8578215,7.7303249 33.3176471,8.21454545 L33.3176471,8.21454545 Z" id="路径" fill="url(#radialGradient-3)"></path>
                            <path d="M17.2890093,33.7418182 C16.3519505,33.7418182 14.7901858,33.9436364 14.7299071,34.7127273 C14.6531889,35.7054545 16.0450774,35.8363636 17.1794118,35.9290909 C17.6178019,35.9672727 18.0507121,35.9890909 18.4781424,35.9890909 C23.2014804,35.9650103 27.7246089,34.0872884 31.065418,30.7636364 C27.5034985,32.8909091 22.8456037,33.7254545 17.2890093,33.7418182 Z" id="路径" fill="url(#radialGradient-4)"></path>
                            <path d="M33.5532817,17.2909091 C24.9608359,15.0436364 18.3904644,16.0581818 16.6862229,18.5072727 C16.1382353,19.3145455 16.2094737,21.0763636 16.5875851,21.8836364 C17.168452,23.1436364 18.4671827,23.8472727 20.5824149,24.0654545 C24.9198005,24.4851032 29.2967514,23.9449371 33.3998452,22.4836364 C34.4191022,22.08 35.7616718,21.18 36.1397833,20.5090909 C36.5063637,19.9720338 36.5192647,19.2700429 36.1726625,18.72 C35.4493189,17.7490909 33.5532817,17.2909091 33.5532817,17.2909091 Z" id="路径" fill="url(#radialGradient-5)"></path>
                            <path d="M3.16736842,18.6327273 C11.7598142,20.88 18.3301858,19.8654545 20.0344272,17.4163636 C20.5824149,16.6090909 20.5111765,14.8472727 20.133065,14.0345455 C19.5521981,12.7745455 18.2534675,12.0709091 16.1382353,11.8527273 C11.8008163,11.4305361 7.42330735,11.970771 3.32080495,13.4345455 C2.30154799,13.8381818 0.958978328,14.7381818 0.580866873,15.4090909 C0.214286431,15.9461481 0.2013855,16.6481389 0.547987616,17.1981818 C1.29873065,18.1745455 3.16736842,18.6327273 3.16736842,18.6327273 Z" id="路径" fill="url(#radialGradient-6)"></path>
                            <path d="M26.0513313,9.52363636 C27.3555418,9.67090909 30.2982353,10.3036364 31.5312074,10.4018182 C32.4518266,10.4781818 33.2464087,10.2327273 33.4930031,9.54 C33.5976981,9.04926514 33.5538366,8.53864796 33.3669659,8.07272727 C33.0381734,7.58727273 32.6929412,7.11818182 32.3203096,6.66545455 C30.4407121,5.19272727 26.6267183,4.63090909 23.9634985,4.32545455 C18.1931889,3.65454545 12.0009288,4.05818182 7.45263158,5.86363636 C5.92155111,6.53567147 4.52539963,7.47815267 3.33176471,8.64545455 C2.23035855,9.98085423 1.43381838,11.538653 0.997337461,13.2109091 C1.28229102,13.2436364 1.78643963,12.2945455 3.29888545,11.46 C4.00290681,11.099389 4.73613893,10.7983289 5.49083591,10.56 C11.0693498,8.69454545 19.513839,8.77636364 26.0513313,9.52363636 Z" id="路径" fill="url(#radialGradient-7)"></path>
                            <path d="M5.85798762,5.40545455 C9.43634675,3.18 14.1654799,2.32363636 19.8097523,2.30181818 C20.7468111,2.30181818 22.3085759,2.1 22.3688545,1.33090909 C22.4455728,0.338181818 21.0536842,0.212727273 19.9193498,0.114545455 C14.912721,-0.232783655 9.97600752,1.43794015 6.21965944,4.75090909 C5.59495356,5.34 5.40315789,5.70545455 5.85798762,5.40545455 Z" id="路径" fill="url(#radialGradient-8)"></path>
                            <path d="M25.9417337,22.9090909 C24.8950774,22.8381818 23.7881424,22.9090909 22.6976471,22.9090909 C21.6071517,22.9090909 20.4015789,22.9090909 19.2562848,22.8709091 C12.5105573,22.62 6.01690402,22.3254545 0.8274613,20.4763636 C0.663560039,20.6078064 0.578759432,20.813681 0.602786378,21.0218182 C0.805326507,22.9036954 1.77379409,24.6207424 3.28244582,25.7727273 C3.45886318,25.900208 3.64176867,26.018547 3.83043344,26.1272727 C13.6613313,32.6072727 26.5773994,29.2963636 26.5773994,29.2963636 L26.5773994,29.2963636 C27.7873993,29.0022132 28.7493385,28.0904143 29.1036223,26.9018182 C29.6680495,24.3872727 27.9364087,23.04 25.9417337,22.9090909 Z" id="路径" fill="url(#radialGradient-9)"></path>
                            <path d="M24.6758824,32.2309091 C23.411512,32.5463731 22.1310293,32.7940026 20.839969,32.9727273 C14.5381115,33.4345455 9.5623839,32.3345455 5.91278638,29.6727273 C5.17861861,29.103794 4.4744317,28.4975335 3.80303406,27.8563636 C3.7920462,27.8919049 3.7920462,27.9299133 3.80303406,27.9654545 L3.80303406,27.9654545 C4.11127027,28.787475 4.58068676,29.5402612 5.18396285,30.18 L5.18396285,30.18 C5.81011199,30.8877154 6.49575403,31.5409914 7.23343653,32.1327273 L7.27727554,32.1327273 C9.41867905,33.7131489 11.8526841,34.8568667 14.4394737,35.4981818 C16.7673844,36.0067344 19.1699134,36.080715 21.5249536,35.7163636 C22.4554799,35.5565979 23.3717043,35.3231287 24.2648916,35.0181818 C24.9641376,34.892506 25.5869879,34.5013571 26.0020124,33.9272727 C26.1745777,33.6083413 26.2507063,33.2465075 26.2212074,32.8854545 C26.062291,32.3345455 25.3225077,32.0781818 24.6758824,32.2309091 Z" id="路径" fill="url(#radialGradient-10)"></path>
                            <path d="M15.0860991,12.7909091 C15.9464396,12.8509091 16.8670588,12.7909091 17.7712384,12.7909091 L19.0918885,12.7909091 C18.2052801,12.229481 17.1876726,11.9062538 16.1382353,11.8527273 C15.0457865,11.7449639 13.9479155,11.7012521 12.8503096,11.7218182 C13.4041746,12.3845309 14.2202012,12.7747316 15.0860991,12.7909091 L15.0860991,12.7909091 Z" id="路径" fill="url(#radialGradient-11)" fill-rule="nonzero"></path>
                            <path d="M26.0513313,9.52363636 C27.3555418,9.67090909 30.2982353,10.3036364 31.5312074,10.4018182 C32.0693689,10.4789076 32.6177032,10.3670477 33.0820124,10.0854545 L32.8902167,9.96545455 C25.0704334,5.46 14.60387,7.48363636 14.60387,7.48363636 C13.6918182,7.71458489 12.9436954,8.36211932 12.5872755,9.22909091 C17.0743908,8.89695924 21.5832087,8.99559608 26.0513313,9.52363636 L26.0513313,9.52363636 Z" id="路径" fill="url(#radialGradient-12)" fill-rule="nonzero"></path>
                            <path d="M33.3176471,8.21454545 C33.3306384,8.14972959 33.3306384,8.08299768 33.3176471,8.01818182 L33.2354489,7.89818182 C33.1642105,7.8 33.0929721,7.70181818 33.0272136,7.59818182 L32.9011765,7.42909091 C32.8134985,7.30909091 32.7258204,7.18909091 32.6326625,7.07454545 C32.5395046,6.96 32.5614241,6.98181818 32.5285449,6.93818182 L32.30387,6.66 C30.9010217,5.56909091 28.4186378,4.97454545 26.1444892,4.61454545 C28.1501124,5.07460007 30.0686677,5.85173396 31.8271207,6.91636364 C32.3632865,7.3022033 32.8622735,7.73679871 33.3176471,8.21454545 L33.3176471,8.21454545 Z" id="路径" fill="url(#radialGradient-13)" fill-rule="nonzero"></path>
                            <path d="M22.3852941,1.30909091 C22.4236533,0.796363636 22.0674613,0.512727273 21.5633127,0.349090909 C19.5960717,0.055501474 17.5958478,0.055501474 15.6286068,0.349090909 C14.6971055,0.504292079 13.7805076,0.737856488 12.8886687,1.04727273 C12.1894228,1.1729485 11.5665725,1.56409749 11.151548,2.13818182 C10.9789827,2.45711325 10.902854,2.81894707 10.9323529,3.18 L10.9323529,3.25090909 C13.829244,2.55459809 16.8024759,2.22291552 19.7823529,2.26363636 C20.7632508,2.30181818 22.3250155,2.1 22.3852941,1.30909091 Z" id="路径" fill="url(#radialGradient-14)" fill-rule="nonzero"></path>
                            <path d="M10.9707121,26.5254545 C9.68294118,26.3727273 6.77860681,25.7454545 5.58399381,25.6418182 C4.95143764,25.5237232 4.30050048,25.7166799 3.83591331,26.16 C13.6613313,32.6181818 26.5554799,29.3127273 26.5554799,29.3127273 L26.5554799,29.3127273 C27.7654798,29.0185768 28.727419,28.106778 29.0817028,26.9181818 C29.1473867,26.6444151 29.1859305,26.3648946 29.1967802,26.0836364 C23.804582,27.3218182 16.6588235,27.18 10.9707121,26.5254545 Z" id="路径" fill="#152754" fill-rule="nonzero"></path>
                            <path d="M14.7299071,34.7127273 C14.691548,35.2254545 15.0477399,35.5145455 15.5573684,35.6781818 C17.5229755,35.9690519 19.5209873,35.9690519 21.4865944,35.6781818 C22.4171208,35.5184161 23.3333451,35.2849469 24.2265325,34.98 C24.9257785,34.8543242 25.5486287,34.4631752 25.9636533,33.8890909 C26.1362186,33.5701595 26.2123472,33.2083257 26.1828483,32.8472727 C26.1828483,32.8472727 26.1828483,32.8036364 26.1828483,32.7818182 C23.2852674,33.4737014 20.3123665,33.8035148 17.3328483,33.7636364 C16.3519505,33.7418182 14.7901858,33.9436364 14.7299071,34.7127273 Z" id="路径" fill="#152754" fill-rule="nonzero"></path>
                            <path d="M20.0344272,17.4163636 C20.2152514,17.1341274 20.3312617,16.8156426 20.3741796,16.4836364 C18.5877399,16.9090909 17.3109288,17.6127273 16.6862229,18.5072727 C16.5053987,18.789509 16.3893885,19.1079937 16.3464706,19.44 C18.1329102,19.0145455 19.4097214,18.3109091 20.0344272,17.4163636 Z" id="路径" fill="url(#radialGradient-15)" fill-rule="nonzero"></path>
                            <path d="M22.6976471,22.9090909 C21.5633127,22.9090909 20.4015789,22.9090909 19.2562848,22.8709091 C18.5767802,22.8436364 17.9027554,22.8218182 17.2287307,22.7890909 C17.9411146,23.4927273 19.0425697,23.9072727 20.5824149,24.0654545 C23.1404628,24.3035432 25.7185832,24.2155591 28.2542415,23.8036364 C27.6013071,23.2564554 26.7836789,22.9416649 25.930774,22.9090909 C24.8950774,22.8381818 23.7881424,22.9090909 22.6976471,22.9090909 Z" id="路径" fill="url(#radialGradient-16)" fill-rule="nonzero"></path>
                            <path d="M5.91278638,29.6727273 C5.17861861,29.103794 4.4744317,28.4975335 3.80303406,27.8563636 C3.7920462,27.8919049 3.7920462,27.9299133 3.80303406,27.9654545 L3.80303406,27.9654545 C3.86815746,28.1745654 3.95254045,28.377244 4.05510836,28.5709091 L4.05510836,28.5709091 C4.66337461,29.5690909 6.01142415,30.2563636 7.59510836,30.7527273 C7.01075469,30.4304912 6.44872456,30.0696848 5.91278638,29.6727273 L5.91278638,29.6727273 Z" id="路径" fill="#152754"></path>
                        </g>
                        <path d="M60.9557843,6.13939394 L59.1452941,6.13939394 L55.1483333,16.9751515 L57.8206863,16.9751515 L58.8907843,13.8890909 L62.4481373,13.8890909 L63.5182353,16.9751515 L66.2426471,16.9751515 L62.6332353,7.29090909 C62.2283333,6.31212121 61.7887255,6.13939394 60.9557843,6.13939394 Z M59.5559804,11.8969697 L60.6376471,8.77060606 L60.6376471,8.72454545 L61.7077451,11.8969697 L59.5559804,11.8969697 Z M74.2597059,12.4727273 L70.685,7.17575758 C70.1065686,6.17969697 69.8231373,6.17969697 68.9092157,6.17969697 L67.6540196,6.17969697 L67.6540196,17.0154545 L70.1644118,17.0154545 L70.1644118,10.8606061 L74.2134314,16.9981818 L76.8048039,16.9981818 L76.8048039,6.13939394 L74.2944118,6.13939394 L74.2597059,12.4727273 Z M51.897549,10.5209091 L51.897549,10.5209091 C51.5620588,10.3654545 51.2034314,10.2157576 50.8621569,10.060303 C50.3242157,9.8069697 49.2888235,9.31757576 49.7052941,8.56909091 C49.942451,8.11424242 50.6539216,8.06242424 51.1802941,8.06242424 C51.972875,8.06309322 52.7634269,8.14216872 53.5402941,8.29848485 L53.7890196,6.39848485 L53.4361765,6.31212121 C52.4908998,6.07989584 51.5162146,5.98869896 50.5440196,6.04151515 C49.7485378,6.07263859 48.9733166,6.30017282 48.2881373,6.70363636 C47.5371465,7.2166026 47.0589136,8.0395922 46.9866667,8.94333333 L46.9866667,9.45 C47.0418152,10.1562528 47.3618686,10.8160093 47.8832353,11.2981818 C48.428931,11.7577123 49.0387953,12.1359034 49.6937255,12.4209091 C50.219928,12.64729 50.730116,12.9088993 51.2207843,13.2039394 C51.6141176,13.44 51.8801961,13.7106061 51.8801961,13.9812121 C51.8801961,14.6778788 51.1860784,14.9312121 50.5440196,15.0175758 C49.4468296,15.0993898 48.3446953,14.948277 47.3105882,14.5742424 L47.1544118,16.6469697 C48.5106085,17.1525218 49.9744554,17.3031859 51.4058824,17.0845455 C52.0576324,16.9858817 52.6785368,16.7418173 53.2221569,16.3706061 C54.6277451,15.3918182 55.1020588,13.0657576 53.8642157,11.7645455 C53.2913649,11.2339856 52.6296949,10.8072521 51.9091176,10.5036364 L51.897549,10.5209091 Z M101.781471,6.04151515 L101.781471,6.04151515 C100.046662,6.01515394 98.4281388,6.90725438 97.53,8.38484848 C96.1938235,10.59 96.4946078,14.0848485 98.4092157,15.8293939 C99.3269008,16.6716794 100.533272,17.1330483 101.781471,17.1190909 L101.781471,17.1190909 C103.513336,17.1344919 105.12407,16.2364755 106.015588,14.7584848 C106.572907,13.7843112 106.854747,12.6780772 106.831176,11.5572727 C106.903276,9.96643138 106.286131,8.4212672 105.136373,7.31393939 C104.21443,6.4917643 103.019305,6.03848545 101.781471,6.04151515 L101.781471,6.04151515 Z M103.591961,13.8257576 C103.30143,14.577016 102.589591,15.0840926 101.781471,15.1154545 L101.781471,15.1154545 C100.97335,15.0840926 100.261511,14.577016 99.9709804,13.8257576 C99.6396473,13.1031778 99.471804,12.3169783 99.4793137,11.5227273 C99.4732896,10.7434477 99.6412219,9.97256367 99.9709804,9.26575758 C100.263151,8.55341631 100.935375,8.06719192 101.706275,8.01060606 L101.781471,8.01060606 C102.580626,8.03761012 103.289433,8.52900219 103.591961,9.26575758 C103.921719,9.97256367 104.089652,10.7434477 104.083627,11.5227273 C104.098404,12.3152601 103.938475,13.1013842 103.615098,13.8257576 L103.591961,13.8257576 Z M114.269804,12.3863636 C116.502549,11.6378788 117.416471,8.35606061 115.455588,6.93969697 C114.622647,6.31212121 113.402157,6.07606061 111.661078,6.07606061 C110.515004,6.05880373 109.369508,6.13777034 108.236765,6.31212121 L108.236765,16.9981818 L110.741373,16.9981818 L110.741373,8.17757576 C111.138193,8.10652902 111.541704,8.07949518 111.94451,8.0969697 C114.981275,8.0969697 113.945882,11.1312121 111.406569,11.2175758 C110.712451,11.2175758 110.660392,11.0621212 111.898235,13.3018182 C112.592353,14.539697 113.286471,15.760303 113.997941,16.9981818 L116.994216,16.9981818 L114.269804,12.3863636 Z M88.7551961,16.9924242 L91.2771569,16.9924242 L91.2771569,12.720303 L95.465,12.720303 L95.465,10.6878788 L91.225098,10.6878788 L91.225098,8.16030303 L95.465,8.16030303 L95.465,6.13939394 L88.7551961,6.13939394 L88.7551961,16.9924242 Z M82.889902,12.2136364 L82.889902,13.1290909 L84.6714706,13.1290909 L84.6714706,15.0290909 C83.7455532,15.1246737 82.8121991,14.9400697 81.9933333,14.4993939 C80.3332353,13.4169697 80.5009804,9.46151515 82.2131373,8.51151515 C83.37,7.88393939 85.3655882,7.98757576 86.5687255,8.12 L86.7538235,6.42727273 C84.752451,5.88606061 82.299902,5.78242424 80.4662745,6.96848485 C79.4498763,7.64695103 78.7159571,8.67009757 78.4012745,9.84727273 C78.0861087,11.0652761 78.0861087,12.3429057 78.4012745,13.5609091 C79.349902,17.0154545 82.9766667,17.43 86.4993137,16.8715152 C86.7017647,16.8369697 86.9215686,16.8024242 87.1413725,16.7506061 L87.1413725,11.1542424 L83.8732353,11.1542424 C83.167549,11.1830303 82.8956863,11.2175758 82.9130392,12.2193939 L82.889902,12.2136364 Z" id="形状" fill="#231815" fill-rule="nonzero"></path>
                    </g>
                </g>
            </g>
        </g>
    </g>
</svg>